<svg width="200" height="105" viewBox="0 0 520 145" fill="none" xmlns="http://www.w3.org/2000/svg">
<g filter="url(#filter0_d)">
<path d="M65.2636 129.794V68.3825H72.4479V77.2399C73.4976 73.8281 75.2363 71.335 77.6639 69.7603C80.1571 68.1857 82.9783 67.3983 86.1276 67.3983C89.4737 67.3983 92.5574 68.2513 95.3786 69.9571C98.2655 71.5974 100.562 74.1234 102.268 77.5351C104.039 80.9468 104.925 85.2771 104.925 90.5259C104.925 95.7747 104.006 100.203 102.169 103.812C100.332 107.355 97.9702 110.045 95.0834 111.882C92.1965 113.654 89.1457 114.539 85.9308 114.539C83.2408 114.539 80.7148 113.916 78.3528 112.669C75.9908 111.423 74.0553 109.684 72.5463 107.453V129.794H65.2636ZM84.7498 108.241C86.8493 108.241 88.8832 107.749 90.8515 106.764C92.8198 105.715 94.4273 103.91 95.6739 101.352C96.9205 98.7928 97.5438 95.2827 97.5438 90.8212C97.5438 85.4411 96.5268 81.2749 94.4929 78.3224C92.459 75.3044 89.5721 73.6969 85.8324 73.5001C83.4048 73.3689 81.174 73.9266 79.1401 75.1731C77.1062 76.3541 75.4659 78.3552 74.2193 81.1765C73.0384 83.9977 72.4479 87.7375 72.4479 92.3958C72.5791 97.7102 73.7601 101.68 75.9908 104.304C78.2216 106.928 81.1412 108.241 84.7498 108.241ZM135.335 114.342C128.774 114.342 123.46 112.341 119.392 108.339C115.39 104.337 113.389 98.5632 113.389 91.018C113.389 85.9004 114.307 81.6029 116.144 78.1256C118.047 74.5827 120.54 71.8926 123.624 70.0556C126.773 68.2185 130.25 67.2999 134.056 67.2999C137.468 67.2999 140.551 68.0544 143.307 69.5635C146.063 71.0725 148.26 73.4017 149.901 76.551C151.541 79.7003 152.361 83.7353 152.361 88.656C152.361 89.1809 152.328 89.7386 152.263 90.3291C152.263 90.854 152.23 91.3789 152.164 91.9037H120.179C120.442 97.6774 122.049 101.909 125.002 104.599C128.02 107.289 131.53 108.634 135.532 108.634C140.256 108.634 144.127 106.961 147.145 103.615L151.082 107.453C147.276 112.046 142.027 114.342 135.335 114.342ZM120.475 86.3925H145.177C145.177 82.1934 144.094 78.8801 141.929 76.4525C139.83 73.9594 137.041 72.7128 133.564 72.7128C130.48 72.7128 127.692 73.8281 125.198 76.0589C122.705 78.224 121.131 81.6686 120.475 86.3925ZM187.2 114.047C183.329 114.047 180.377 113.161 178.343 111.39C176.374 109.618 175.062 106.896 174.406 103.222C173.75 99.4817 173.52 94.725 173.717 88.9513L174.308 74.189H164.663V68.3825H174.505L174.898 56.8679L182.279 55.9822L183.263 55.8838L183.362 56.5727C183.034 57.0319 182.739 57.4912 182.476 57.9505C182.279 58.4097 182.115 59.1971 181.984 60.3124L181.295 68.3825H197.042V74.189H181.394L180.705 89.4434C180.508 94.4297 180.639 98.3007 181.098 101.056C181.558 103.746 182.378 105.616 183.559 106.666C184.74 107.65 186.314 108.142 188.283 108.142C190.448 108.142 192.35 107.716 193.991 106.863C195.697 106.01 197.468 104.927 199.305 103.615L201.47 109.225C199.24 110.865 196.943 112.079 194.581 112.866C192.219 113.654 189.759 114.047 187.2 114.047ZM216.823 113.358V107.65H228.338V74.0906H217.414V68.3825H235.424V107.65H245.954V113.358H216.823ZM231.487 58.9346C230.109 58.9346 228.928 58.4425 227.944 57.4584C226.96 56.4742 226.468 55.2933 226.468 53.9154C226.468 52.472 226.927 51.2582 227.846 50.2741C228.83 49.2899 230.044 48.7979 231.487 48.7979C232.865 48.7979 234.046 49.3227 235.03 50.3725C236.08 51.3567 236.605 52.5376 236.605 53.9154C236.605 55.2933 236.08 56.4742 235.03 57.4584C234.046 58.4425 232.865 58.9346 231.487 58.9346ZM285.615 114.047C281.744 114.047 278.792 113.161 276.758 111.39C274.79 109.618 273.477 106.896 272.821 103.222C272.165 99.4817 271.936 94.725 272.132 88.9513L272.723 74.189H263.078V68.3825H272.92L273.313 56.8679L280.695 55.9822L281.679 55.8838L281.777 56.5727C281.449 57.0319 281.154 57.4912 280.891 57.9505C280.695 58.4097 280.531 59.1971 280.399 60.3124L279.71 68.3825H295.457V74.189H279.809L279.12 89.4434C278.923 94.4297 279.054 98.3007 279.514 101.056C279.973 103.746 280.793 105.616 281.974 106.666C283.155 107.65 284.73 108.142 286.698 108.142C288.863 108.142 290.766 107.716 292.406 106.863C294.112 106.01 295.883 104.927 297.72 103.615L299.886 109.225C297.655 110.865 295.358 112.079 292.997 112.866C290.635 113.654 288.174 114.047 285.615 114.047ZM377.634 114.342C374.616 114.342 371.663 113.489 368.776 111.784C365.955 110.012 363.626 107.355 361.789 103.812C359.952 100.269 359.033 95.8076 359.033 90.4275C359.033 84.9163 359.984 80.4548 361.887 77.043C363.79 73.6313 366.185 71.1381 369.072 69.5635C372.024 67.9888 375.009 67.2015 378.027 67.2015C381.111 67.2015 383.768 67.9232 385.999 69.3666C388.295 70.7445 390.001 72.6143 391.117 74.9763V47.9121H398.596V48.601C398.202 48.9947 397.94 49.4212 397.809 49.8804C397.743 50.3397 397.71 51.127 397.71 52.2424L397.809 106.371C397.809 107.552 397.842 108.733 397.907 109.914C398.038 111.029 398.334 112.177 398.793 113.358H391.805C391.346 112.177 391.051 111.029 390.92 109.914C390.854 108.733 390.821 107.552 390.821 106.371C389.378 108.798 387.541 110.734 385.31 112.177C383.079 113.621 380.52 114.342 377.634 114.342ZM378.716 108.142C381.603 108.142 383.899 107.355 385.605 105.78C387.377 104.206 388.623 102.106 389.345 99.4817C390.132 96.7917 390.526 93.8392 390.526 90.6243C390.526 85.5724 389.542 81.3733 387.574 78.0272C385.605 74.6811 382.456 73.008 378.126 73.008C374.123 73.008 371.073 74.4842 368.973 77.4367C366.939 80.3892 365.922 84.3586 365.922 89.3449C365.922 94.9874 367.005 99.5473 369.17 103.025C371.335 106.436 374.517 108.142 378.716 108.142ZM430.581 114.342C424.02 114.342 418.706 112.341 414.638 108.339C410.636 104.337 408.634 98.5632 408.634 91.018C408.634 85.9004 409.553 81.6029 411.39 78.1256C413.293 74.5827 415.786 71.8926 418.87 70.0556C422.019 68.2185 425.496 67.2999 429.302 67.2999C432.713 67.2999 435.797 68.0544 438.553 69.5635C441.308 71.0725 443.506 73.4017 445.147 76.551C446.787 79.7003 447.607 83.7353 447.607 88.656C447.607 89.1809 447.574 89.7386 447.508 90.3291C447.508 90.854 447.476 91.3789 447.41 91.9037H415.425C415.688 97.6774 417.295 101.909 420.247 104.599C423.266 107.289 426.776 108.634 430.778 108.634C435.502 108.634 439.373 106.961 442.391 103.615L446.328 107.453C442.522 112.046 437.273 114.342 430.581 114.342ZM415.72 86.3925H440.423C440.423 82.1934 439.34 78.8801 437.175 76.4525C435.075 73.9594 432.287 72.7128 428.81 72.7128C425.726 72.7128 422.937 73.8281 420.444 76.0589C417.951 78.224 416.376 81.6686 415.72 86.3925ZM474.77 113.358L456.956 68.3825H464.042L477.919 103.615L485.202 86.983C486.776 83.3744 488.023 80.0283 488.941 76.9446C489.925 73.8609 490.647 71.0069 491.106 68.3825H497.799C497.274 71.1381 496.454 74.1562 495.338 77.4367C494.223 80.7172 492.845 84.2602 491.205 88.0656L480.281 113.358H474.77Z" fill="black"/>
<path d="M328.82 114.441C327.245 114.441 325.9 113.883 324.785 112.768C323.669 111.652 323.112 110.34 323.112 108.831C323.112 107.322 323.669 106.01 324.785 104.895C325.9 103.779 327.245 103.222 328.82 103.222C330.329 103.222 331.641 103.779 332.756 104.895C333.872 106.01 334.429 107.322 334.429 108.831C334.429 110.34 333.872 111.652 332.756 112.768C331.641 113.883 330.329 114.441 328.82 114.441Z" fill="#7F87BD"/>
<path d="M65.2636 129.794V68.3825H72.4479V77.2399C73.4976 73.8281 75.2363 71.335 77.6639 69.7603C80.1571 68.1857 82.9783 67.3983 86.1276 67.3983C89.4737 67.3983 92.5574 68.2513 95.3786 69.9571C98.2655 71.5974 100.562 74.1234 102.268 77.5351C104.039 80.9468 104.925 85.2771 104.925 90.5259C104.925 95.7747 104.006 100.203 102.169 103.812C100.332 107.355 97.9702 110.045 95.0834 111.882C92.1965 113.654 89.1457 114.539 85.9308 114.539C83.2408 114.539 80.7148 113.916 78.3528 112.669C75.9908 111.423 74.0553 109.684 72.5463 107.453V129.794H65.2636ZM84.7498 108.241C86.8493 108.241 88.8832 107.749 90.8515 106.764C92.8198 105.715 94.4273 103.91 95.6739 101.352C96.9205 98.7928 97.5438 95.2827 97.5438 90.8212C97.5438 85.4411 96.5268 81.2749 94.4929 78.3224C92.459 75.3044 89.5721 73.6969 85.8324 73.5001C83.4048 73.3689 81.174 73.9266 79.1401 75.1731C77.1062 76.3541 75.4659 78.3552 74.2193 81.1765C73.0384 83.9977 72.4479 87.7375 72.4479 92.3958C72.5791 97.7102 73.7601 101.68 75.9908 104.304C78.2216 106.928 81.1412 108.241 84.7498 108.241ZM135.335 114.342C128.774 114.342 123.46 112.341 119.392 108.339C115.39 104.337 113.389 98.5632 113.389 91.018C113.389 85.9004 114.307 81.6029 116.144 78.1256C118.047 74.5827 120.54 71.8926 123.624 70.0556C126.773 68.2185 130.25 67.2999 134.056 67.2999C137.468 67.2999 140.551 68.0544 143.307 69.5635C146.063 71.0725 148.26 73.4017 149.901 76.551C151.541 79.7003 152.361 83.7353 152.361 88.656C152.361 89.1809 152.328 89.7386 152.263 90.3291C152.263 90.854 152.23 91.3789 152.164 91.9037H120.179C120.442 97.6774 122.049 101.909 125.002 104.599C128.02 107.289 131.53 108.634 135.532 108.634C140.256 108.634 144.127 106.961 147.145 103.615L151.082 107.453C147.276 112.046 142.027 114.342 135.335 114.342ZM120.475 86.3925H145.177C145.177 82.1934 144.094 78.8801 141.929 76.4525C139.83 73.9594 137.041 72.7128 133.564 72.7128C130.48 72.7128 127.692 73.8281 125.198 76.0589C122.705 78.224 121.131 81.6686 120.475 86.3925ZM187.2 114.047C183.329 114.047 180.377 113.161 178.343 111.39C176.374 109.618 175.062 106.896 174.406 103.222C173.75 99.4817 173.52 94.725 173.717 88.9513L174.308 74.189H164.663V68.3825H174.505L174.898 56.8679L182.279 55.9822L183.263 55.8838L183.362 56.5727C183.034 57.0319 182.739 57.4912 182.476 57.9505C182.279 58.4097 182.115 59.1971 181.984 60.3124L181.295 68.3825H197.042V74.189H181.394L180.705 89.4434C180.508 94.4297 180.639 98.3007 181.098 101.056C181.558 103.746 182.378 105.616 183.559 106.666C184.74 107.65 186.314 108.142 188.283 108.142C190.448 108.142 192.35 107.716 193.991 106.863C195.697 106.01 197.468 104.927 199.305 103.615L201.47 109.225C199.24 110.865 196.943 112.079 194.581 112.866C192.219 113.654 189.759 114.047 187.2 114.047ZM216.823 113.358V107.65H228.338V74.0906H217.414V68.3825H235.424V107.65H245.954V113.358H216.823ZM231.487 58.9346C230.109 58.9346 228.928 58.4425 227.944 57.4584C226.96 56.4742 226.468 55.2933 226.468 53.9154C226.468 52.472 226.927 51.2582 227.846 50.2741C228.83 49.2899 230.044 48.7979 231.487 48.7979C232.865 48.7979 234.046 49.3227 235.03 50.3725C236.08 51.3567 236.605 52.5376 236.605 53.9154C236.605 55.2933 236.08 56.4742 235.03 57.4584C234.046 58.4425 232.865 58.9346 231.487 58.9346ZM285.615 114.047C281.744 114.047 278.792 113.161 276.758 111.39C274.79 109.618 273.477 106.896 272.821 103.222C272.165 99.4817 271.936 94.725 272.132 88.9513L272.723 74.189H263.078V68.3825H272.92L273.313 56.8679L280.695 55.9822L281.679 55.8838L281.777 56.5727C281.449 57.0319 281.154 57.4912 280.891 57.9505C280.695 58.4097 280.531 59.1971 280.399 60.3124L279.71 68.3825H295.457V74.189H279.809L279.12 89.4434C278.923 94.4297 279.054 98.3007 279.514 101.056C279.973 103.746 280.793 105.616 281.974 106.666C283.155 107.65 284.73 108.142 286.698 108.142C288.863 108.142 290.766 107.716 292.406 106.863C294.112 106.01 295.883 104.927 297.72 103.615L299.886 109.225C297.655 110.865 295.358 112.079 292.997 112.866C290.635 113.654 288.174 114.047 285.615 114.047ZM377.634 114.342C374.616 114.342 371.663 113.489 368.776 111.784C365.955 110.012 363.626 107.355 361.789 103.812C359.952 100.269 359.033 95.8076 359.033 90.4275C359.033 84.9163 359.984 80.4548 361.887 77.043C363.79 73.6313 366.185 71.1381 369.072 69.5635C372.024 67.9888 375.009 67.2015 378.027 67.2015C381.111 67.2015 383.768 67.9232 385.999 69.3666C388.295 70.7445 390.001 72.6143 391.117 74.9763V47.9121H398.596V48.601C398.202 48.9947 397.94 49.4212 397.809 49.8804C397.743 50.3397 397.71 51.127 397.71 52.2424L397.809 106.371C397.809 107.552 397.842 108.733 397.907 109.914C398.038 111.029 398.334 112.177 398.793 113.358H391.805C391.346 112.177 391.051 111.029 390.92 109.914C390.854 108.733 390.821 107.552 390.821 106.371C389.378 108.798 387.541 110.734 385.31 112.177C383.079 113.621 380.52 114.342 377.634 114.342ZM378.716 108.142C381.603 108.142 383.899 107.355 385.605 105.78C387.377 104.206 388.623 102.106 389.345 99.4817C390.132 96.7917 390.526 93.8392 390.526 90.6243C390.526 85.5724 389.542 81.3733 387.574 78.0272C385.605 74.6811 382.456 73.008 378.126 73.008C374.123 73.008 371.073 74.4842 368.973 77.4367C366.939 80.3892 365.922 84.3586 365.922 89.3449C365.922 94.9874 367.005 99.5473 369.17 103.025C371.335 106.436 374.517 108.142 378.716 108.142ZM430.581 114.342C424.02 114.342 418.706 112.341 414.638 108.339C410.636 104.337 408.634 98.5632 408.634 91.018C408.634 85.9004 409.553 81.6029 411.39 78.1256C413.293 74.5827 415.786 71.8926 418.87 70.0556C422.019 68.2185 425.496 67.2999 429.302 67.2999C432.713 67.2999 435.797 68.0544 438.553 69.5635C441.308 71.0725 443.506 73.4017 445.147 76.551C446.787 79.7003 447.607 83.7353 447.607 88.656C447.607 89.1809 447.574 89.7386 447.508 90.3291C447.508 90.854 447.476 91.3789 447.41 91.9037H415.425C415.688 97.6774 417.295 101.909 420.247 104.599C423.266 107.289 426.776 108.634 430.778 108.634C435.502 108.634 439.373 106.961 442.391 103.615L446.328 107.453C442.522 112.046 437.273 114.342 430.581 114.342ZM415.72 86.3925H440.423C440.423 82.1934 439.34 78.8801 437.175 76.4525C435.075 73.9594 432.287 72.7128 428.81 72.7128C425.726 72.7128 422.937 73.8281 420.444 76.0589C417.951 78.224 416.376 81.6686 415.72 86.3925ZM474.77 113.358L456.956 68.3825H464.042L477.919 103.615L485.202 86.983C486.776 83.3744 488.023 80.0283 488.941 76.9446C489.925 73.8609 490.647 71.0069 491.106 68.3825H497.799C497.274 71.1381 496.454 74.1562 495.338 77.4367C494.223 80.7172 492.845 84.2602 491.205 88.0656L480.281 113.358H474.77Z" fill="white"/>
<path d="M328.82 114.441C327.245 114.441 325.9 113.883 324.785 112.768C323.669 111.652 323.112 110.34 323.112 108.831C323.112 107.322 323.669 106.01 324.785 104.895C325.9 103.779 327.245 103.222 328.82 103.222C330.329 103.222 331.641 103.779 332.756 104.895C333.872 106.01 334.429 107.322 334.429 108.831C334.429 110.34 333.872 111.652 332.756 112.768C331.641 113.883 330.329 114.441 328.82 114.441Z" fill="#7F87BD"/>
<path fill-rule="evenodd" clip-rule="evenodd" d="M514.645 30.7094L485.286 1.35106C483.485 -0.450516 480.564 -0.450516 478.762 1.35106C476.961 3.15263 476.961 6.07356 478.762 7.87513L500.245 29.3582H486.632L60.7073 29.3582V29.3604C29.3403 29.6117 4 52.2339 4 80.1036C4 108.13 29.6251 130.849 61.2352 130.849C61.4968 130.849 61.758 130.847 62.0188 130.844V123.154C61.7582 123.158 61.4971 123.16 61.2354 123.16C35.6056 123.16 14.8285 104.227 14.8285 80.8725C14.8285 57.5333 35.5776 38.6101 61.1837 38.5847H61.2872C61.5315 38.5849 61.7754 38.5869 62.0188 38.5906V38.5847L500.245 38.5846L478.762 60.0677C476.961 61.8693 476.961 64.7902 478.762 66.5918C480.564 68.3934 483.485 68.3934 485.286 66.5918L514.645 37.2335C516.446 35.4319 516.446 32.511 514.645 30.7094ZM118.47 80.3088C118.47 80.2404 118.47 80.1721 118.47 80.1036C118.47 80.0536 118.47 80.0035 118.47 79.9534L118.47 79.8985V80.3088Z" fill="#7F87BD"/>
</g>
<defs>
<filter id="filter0_d" x="0" y="-0.00012207" width="519.996" height="145" filterUnits="userSpaceOnUse" color-interpolation-filters="sRGB">
<feFlood flood-opacity="0" result="BackgroundImageFix"/>
<feColorMatrix in="SourceAlpha" type="matrix" values="0 0 0 0 0 0 0 0 0 0 0 0 0 0 0 0 0 0 127 0" result="hardAlpha"/>
<feOffset dy="4"/>
<feGaussianBlur stdDeviation="2"/>
<feComposite in2="hardAlpha" operator="out"/>
<feColorMatrix type="matrix" values="0 0 0 0 0 0 0 0 0 0 0 0 0 0 0 0 0 0 0.65 0"/>
<feBlend mode="normal" in2="BackgroundImageFix" result="effect1_dropShadow"/>
<feBlend mode="normal" in="SourceGraphic" in2="effect1_dropShadow" result="shape"/>
</filter>
</defs>
</svg>
